<?xml version="1.0" encoding="UTF-8"?>
<!DOCTYPE svg PUBLIC "-//W3C//DTD SVG 1.1//EN" "http://www.w3.org/Graphics/SVG/1.1/DTD/svg11.dtd">
<!-- Creator: CorelDRAW X7 -->
<svg xmlns="http://www.w3.org/2000/svg" xml:space="preserve" width="100%" height="100%" version="1.1" style="shape-rendering:geometricPrecision; text-rendering:geometricPrecision; image-rendering:optimizeQuality; fill-rule:evenodd; clip-rule:evenodd"
viewBox="0 0 855 909"
 xmlns:xlink="http://www.w3.org/1999/xlink">
 <defs>
  <style type="text/css">
   <![CDATA[
    .fil0 {fill:#D09A33;fill-rule:nonzero}
   ]]>
  </style>
 </defs>
 <g id="Layer_x0020_1">
  <metadata id="CorelCorpID_0Corel-Layer"/>
  <path id="icon" class="fil0" d="M424 520l0 0c1,-7 5,-13 10,-17l119 -87 -86 120c-4,5 -11,9 -18,9 -7,1 -13,-2 -18,-6 -5,-5 -7,-12 -7,-19zm0 -429l0 0 0 -46 -53 0c-4,0 -7,-3 -7,-7 0,-4 3,-8 7,-8l136 0c5,0 8,4 8,8 0,4 -3,7 -8,7l-53 0 0 46c-5,0 -10,0 -15,0 0,0 0,0 -1,0 -1,0 -1,0 -1,0 -3,0 -5,0 -8,0 -2,0 -3,0 -5,0l0 0zm367 34l0 0 21 22 -21 21 -22 -21 22 -22zm0 171c0,0 0,0 0,-1 0,0 0,0 0,0 -16,-27 -34,-51 -55,-73l33 -33 22 22 64 -64 -64 -65 -65 65 22 21 -33 32c-22,-20 -47,-38 -73,-53 0,-1 0,-1 -1,-2 0,0 0,0 0,0 -47,-27 -100,-45 -156,-51l0 -18 22 0c21,0 39,-17 39,-38 0,-21 -18,-38 -39,-38l-136 0c-21,0 -37,17 -37,38 0,21 16,38 37,38l23 0 0 17c-16,2 -33,5 -49,8 -8,2 -13,10 -11,19 1,8 10,13 18,11 14,-3 28,-6 42,-8l16 -1c5,0 10,-1 14,-1l0 31c0,8 7,15 15,15 8,0 15,-7 15,-15l0 -31c58,3 111,19 159,44l-15 26c-4,7 -2,16 6,20 2,2 5,2 7,2 5,0 10,-2 13,-7l15 -26c48,30 88,71 118,118l-26 15c-7,4 -10,13 -5,21 2,4 7,7 13,7 2,0 5,0 7,-2l26 -15c25,49 41,103 43,161l-30 0c-8,0 -15,7 -15,15 0,9 7,15 15,15l30 0c-2,58 -18,113 -43,161l-26 -15c-7,-4 -17,-2 -20,6 -5,7 -2,16 5,20l26 15c-30,48 -70,88 -118,118l-15 -26c-4,-7 -13,-10 -20,-5 -8,4 -10,13 -6,20l15 26c-48,25 -101,41 -159,43l0 -30c0,-8 -7,-15 -15,-15 -8,0 -15,7 -15,15l0 31c-24,-2 -48,-5 -72,-10 -8,-2 -17,3 -18,12 -2,8 3,16 11,18 30,7 61,10 92,10 0,0 1,0 2,0 0,0 0,0 0,0 0,0 0,0 1,0 72,-1 141,-20 200,-54 1,0 1,0 1,-1 1,0 1,0 1,-1 61,-35 113,-86 148,-147 1,0 1,-1 1,-2 0,0 0,0 0,0 35,-61 55,-130 55,-204 0,-74 -20,-144 -55,-204l0 0zm-488 -84l-76 0c-8,0 -15,7 -15,15 0,8 7,15 15,15l76 0c9,0 15,-7 15,-15 0,-8 -6,-15 -15,-15zm0 106l-151 0c-9,0 -16,7 -16,16 0,8 7,15 16,15l151 0c9,0 15,-7 15,-15 0,-9 -6,-16 -15,-16zm0 106l-227 0c-9,0 -16,7 -16,15 0,9 7,15 16,15l227 0c9,0 15,-6 15,-15 0,-8 -6,-15 -15,-15zm0 106l-288 0c-8,0 -15,7 -15,16 0,8 7,15 15,15l288 0c9,0 15,-7 15,-15 0,-9 -6,-16 -15,-16zm0 106l-197 0c-8,0 -15,7 -15,15 0,9 7,16 15,16l197 0c9,0 15,-7 15,-16 0,-8 -6,-15 -15,-15zm0 106l-106 0c-9,0 -15,7 -15,16 0,8 6,15 15,15l106 0c9,0 15,-7 15,-15 0,-9 -6,-16 -15,-16zm149 -167c16,0 30,-9 40,-22l141 -195c5,-7 4,-15 -1,-20 -6,-6 -14,-6 -20,-2l-196 142c-13,9 -21,24 -22,39 -1,16 4,32 16,43 10,10 24,16 38,16 1,0 3,0 4,-1l0 0z"/>
 </g>
</svg>
