<?xml version="1.0" encoding="UTF-8"?>
<!DOCTYPE svg PUBLIC "-//W3C//DTD SVG 1.1//EN" "http://www.w3.org/Graphics/SVG/1.1/DTD/svg11.dtd">
<!-- Creator: CorelDRAW X7 -->
<svg xmlns="http://www.w3.org/2000/svg" xml:space="preserve" width="100%" height="100%" version="1.1" style="shape-rendering:geometricPrecision; text-rendering:geometricPrecision; image-rendering:optimizeQuality; fill-rule:evenodd; clip-rule:evenodd"
viewBox="0 0 856 855"
 xmlns:xlink="http://www.w3.org/1999/xlink">
 <defs>
  <style type="text/css">
   <![CDATA[
    .fil0 {fill:#f3be5a;fill-rule:nonzero}
   ]]>
  </style>
 </defs>
 <g id="Layer_x0020_1">
  <metadata id="CorelCorpID_0Corel-Layer"/>
  <path id="icon" class="fil0" d="M143 656l28 0 0 -29 -28 0 0 29zm57 0l28 0 0 -29 -28 0 0 29zm57 0l28 0 0 -29 -28 0 0 29zm484 -86c-7,0 -13,7 -13,14l0 113c-57,-7 -100,-54 -100,-113 0,-7 -7,-14 -15,-14l-128 0 0 -78 122 -81c4,-3 6,-8 6,-12l0 -43c0,-23 -9,-44 -25,-61l-10 10 10 -10c-17,-16 -38,-24 -60,-24 -18,0 -36,5 -50,16 -15,-11 -32,-16 -50,-16 -18,0 -35,5 -50,16 -14,-11 -32,-16 -50,-16 -47,0 -86,38 -86,85l0 43c0,4 3,9 7,12l122 81 0 78 -256 0c-48,0 -86,-38 -86,-85 0,-34 19,-64 49,-78 4,-2 6,-5 8,-9 1,-4 0,-8 -2,-12 -8,-13 -12,-29 -12,-44 0,-47 38,-86 85,-86 9,0 18,2 27,5 4,1 8,1 11,-1 4,-3 6,-6 7,-10 9,-38 43,-65 83,-65 16,0 32,4 45,13 4,2 8,3 12,2 4,-2 7,-5 9,-8 13,-30 44,-50 77,-50 33,0 64,20 77,50 2,3 5,6 9,8 4,1 8,0 12,-2 13,-9 29,-13 45,-13 39,0 74,27 83,65 1,4 3,7 7,10 3,2 7,2 11,1 9,-3 18,-5 27,-5 47,0 85,39 85,86 0,15 -4,31 -12,44 -2,4 -3,8 -2,12 2,4 4,7 8,9 30,14 49,44 49,78 0,47 -38,85 -86,85l0 0zm-270 -214c0,-4 0,-7 1,-10 0,0 0,-2 0,-2 1,-3 2,-7 3,-10 0,0 0,0 1,-1 0,-1 1,-3 2,-4 0,1 2,3 2,4 0,1 0,1 1,1 1,3 2,7 2,10 1,0 1,2 1,2 1,3 1,6 1,10 0,3 0,7 -1,10 0,1 0,2 -1,2 0,4 -1,7 -2,10 -1,0 -1,1 -1,1 0,2 -2,3 -2,4 -1,-1 -2,-3 -2,-4 -1,0 -1,-1 -1,-1 -1,-4 -2,-7 -3,-10 0,0 0,-1 0,-2 -1,-3 -1,-7 -1,-10zm-100 0c0,-4 0,-7 1,-10 0,0 0,-2 1,-2 0,-3 1,-7 2,-10 0,0 1,0 1,-1 0,-1 2,-3 2,-4 1,1 2,3 2,4 1,1 1,1 1,1 1,3 2,7 3,10 0,0 0,2 0,2 1,3 1,6 1,10 0,3 0,7 -1,10 0,1 0,2 0,2 -1,4 -2,7 -3,10 0,0 0,1 -1,1 0,2 -1,3 -2,4 0,-1 -2,-3 -2,-4 0,0 0,-1 -1,-1 -1,-4 -2,-7 -2,-10 -1,0 -1,-1 -1,-2 -1,-3 -1,-7 -1,-10zm-3 61c3,3 6,4 10,4 3,0 7,-1 10,-4 17,-16 26,-37 26,-61 0,-4 0,-8 -1,-12 0,0 0,-2 -1,-2 0,-4 -1,-8 -2,-12 0,0 0,0 0,0 -2,-3 -3,-7 -5,-10 0,-1 0,-2 0,-3 -2,-3 -4,-6 -7,-9 0,0 0,0 0,-1 18,-11 42,-11 60,0 0,1 0,1 0,1 -3,3 -5,6 -7,9 0,1 0,2 0,3 -2,3 -4,7 -5,10 0,0 0,0 0,0 -1,4 -2,8 -2,12 -1,0 -1,2 -1,2 -1,4 -1,8 -1,12 0,24 9,45 26,61 3,3 7,4 10,4 3,0 7,-1 10,-4 16,-16 26,-37 26,-61 0,-4 -1,-8 -2,-12 0,0 0,-2 0,-2 0,-4 -1,-8 -2,-12 0,0 -1,0 -1,0 0,-3 -2,-7 -4,-10 0,-1 0,-2 -1,-3 -2,-3 -4,-6 -6,-9 0,0 0,0 0,-1 22,-12 51,-9 70,8 10,11 17,26 17,41l0 35 -122 82c-4,2 -7,7 -7,12l0 85 -56 0 0 -85c0,-5 -3,-10 -7,-12l-122 -82 0 -35c0,-31 25,-57 57,-57 11,0 21,3 29,8 0,1 0,1 0,1 -1,3 -3,6 -5,9 -1,1 -1,2 -1,3 -2,3 -4,7 -4,10 0,0 -1,0 -1,0 -1,4 -2,8 -2,12 0,1 0,2 -1,2 0,4 -1,8 -1,12 0,24 10,45 26,61l0 0zm110 224l-100 0c-12,0 -21,-9 -21,-21 0,-12 9,-21 21,-21l100 0c12,0 21,9 21,21 0,12 -9,21 -21,21zm0 71l-100 0c-12,0 -21,-9 -21,-21 0,-11 9,-21 21,-21l100 0c12,0 21,10 21,21 0,12 -9,21 -21,21zm0 72l-100 0c-12,0 -21,-10 -21,-21 0,-12 9,-22 21,-22l100 0c12,0 21,10 21,22 0,11 -9,21 -21,21zm-50 42c-11,0 -20,-5 -25,-13l50 0c-5,8 -14,13 -25,13zm375 -438c6,-14 10,-30 10,-46 0,-63 -51,-114 -114,-114 -7,0 -15,0 -22,2 -17,-44 -58,-73 -106,-73 -17,0 -32,3 -47,10 -20,-33 -57,-53 -96,-53 -39,0 -76,20 -96,53 -15,-7 -31,-10 -47,-10 -48,0 -89,29 -106,73 -7,-2 -15,-2 -22,-2 -63,0 -114,51 -114,114 0,16 4,32 10,46 -32,21 -53,58 -53,97 0,63 52,114 115,114l218 0c-3,6 -5,13 -5,21 0,14 6,26 15,36 -9,9 -15,21 -15,35 0,14 6,27 15,36 -9,9 -15,21 -15,36 0,25 20,46 45,49 6,24 29,43 55,43 26,0 49,-19 55,-43 25,-3 45,-24 45,-49 0,-15 -6,-27 -15,-36 9,-9 15,-22 15,-36 0,-14 -6,-26 -15,-35 9,-10 15,-22 15,-36 0,-8 -2,-15 -5,-21l77 0c7,71 68,128 141,128 9,0 15,-6 15,-15l0 -114c56,-8 100,-55 100,-113 0,-39 -21,-76 -53,-97l0 0zm-707 392l71 -72 -20 -20 -71 72 20 20zm51 -613l20 -20 -71 -72 -20 20 71 72zm562 0l71 -72 -20 -20 -71 72 20 20zm-295 -82l28 0 0 -85 -28 0 0 85z"/>
 </g>
</svg>
