<?xml version="1.0" encoding="UTF-8"?>
<!DOCTYPE svg PUBLIC "-//W3C//DTD SVG 1.1//EN" "http://www.w3.org/Graphics/SVG/1.1/DTD/svg11.dtd">
<!-- Creator: CorelDRAW X7 -->
<svg xmlns="http://www.w3.org/2000/svg" xml:space="preserve" width="100%" height="100%" version="1.1" style="shape-rendering:geometricPrecision; text-rendering:geometricPrecision; image-rendering:optimizeQuality; fill-rule:evenodd; clip-rule:evenodd"
viewBox="0 0 819 914"
 xmlns:xlink="http://www.w3.org/1999/xlink">
 <defs>
  <style type="text/css">
   <![CDATA[
    .fil0 {fill:#f3be5a;fill-rule:nonzero}
   ]]>
  </style>
 </defs>
 <g id="Layer_x0020_1">
  <metadata id="CorelCorpID_0Corel-Layer"/>
  <path id="icon" class="fil0" d="M410 0c-226,0 -410,184 -410,410l0 205c0,26 21,47 47,47l17 0 0 0c0,26 20,47 46,47l31 0c26,0 47,-21 47,-47l0 -189c0,-25 -21,-46 -47,-46l-31 0c-26,0 -46,21 -46,46l0 1 -34 0 0 -64c0,-210 170,-380 380,-380 209,0 380,170 380,380l0 64 -33 0 0 -1c0,-25 -21,-46 -47,-46l-32 0c-25,0 -46,21 -46,46l0 189c0,26 21,47 46,47l32 0c26,0 47,-21 47,-47l0 0 1 0c-8,102 -91,185 -194,191 -6,-18 -23,-32 -43,-32l-48 0c-17,0 -31,14 -31,31l0 32c0,17 14,30 31,30l48 0c20,0 37,-13 44,-32 120,-6 216,-103 222,-223 19,-6 32,-23 32,-44l0 -205c0,-226 -183,-410 -409,-410l0 0zm-317 473c0,-9 8,-17 17,-17l31 0c9,0 17,8 17,17l0 189c0,10 -8,17 -17,17l-31 0c-9,0 -17,-7 -17,-17l0 -189zm-29 31l0 128 -17 0c-10,0 -17,-8 -17,-17l0 -111 34 0 0 0zm457 380l-48 0c0,0 -1,0 -1,0l0 -32c0,0 1,-1 1,-1l48 0c8,0 16,7 16,17 0,9 -8,16 -16,16zm206 -222c0,10 -8,17 -17,17l-32 0c-9,0 -17,-7 -17,-17l0 -189c0,-9 8,-17 17,-17l32 0c9,0 17,8 17,17l0 189zm46 -30l-16 0 0 -128 33 0 0 111c0,9 -8,17 -17,17l0 0zm-268 -34c16,0 30,-13 30,-30 0,-17 -14,-31 -30,-31 -17,0 -31,14 -31,31 0,17 14,30 31,30zm-95 -61c-17,0 -31,14 -31,31 0,17 14,30 31,30 17,0 31,-13 31,-30 0,-17 -14,-31 -31,-31zm43 251c6,0 13,-3 18,-8l55 -56 10 0c34,0 63,-27 63,-62l0 -189c0,-34 -29,-63 -63,-63l-253 0c-34,0 -62,29 -62,63l0 189c0,35 28,62 62,62l144 0 0 38c0,10 6,20 15,23 4,2 7,3 11,3l0 0zm-170 -93c-17,0 -32,-15 -32,-33l0 -189c0,-18 15,-33 32,-33l253 0c18,0 33,15 33,33l0 189c0,18 -15,33 -33,33l-15 0c-5,0 -9,2 -11,4l-54 54 0 -43c0,-8 -7,-15 -15,-15l-158 0 0 0zm32 -158c-17,0 -31,14 -31,31 0,17 14,30 31,30 17,0 31,-13 31,-30 0,-17 -14,-31 -31,-31z"/>
 </g>
</svg>
