<?xml version="1.0" encoding="UTF-8"?>
<!DOCTYPE svg PUBLIC "-//W3C//DTD SVG 1.1//EN" "http://www.w3.org/Graphics/SVG/1.1/DTD/svg11.dtd">
<!-- Creator: CorelDRAW X7 -->
<svg xmlns="http://www.w3.org/2000/svg" xml:space="preserve" width="100%" height="100%" version="1.1" style="shape-rendering:geometricPrecision; text-rendering:geometricPrecision; image-rendering:optimizeQuality; fill-rule:evenodd; clip-rule:evenodd"
viewBox="0 0 13505 2858"
 xmlns:xlink="http://www.w3.org/1999/xlink">
 <defs>
  <style type="text/css">
   <![CDATA[
    .fil0 {fill:#D09A33;fill-rule:nonzero}
   ]]>
  </style>
 </defs>
 <g id="Layer_x0020_1">
  <metadata id="CorelCorpID_0Corel-Layer"/>
  <path class="fil0" d="M6794 1247c25,-1 48,-14 63,-35l225 -311c7,-10 6,-23 -2,-31 -9,-9 -22,-10 -31,-3l-312 226c-20,14 -33,37 -35,62 -2,25 7,50 25,68 16,16 38,25 60,25 3,0 5,0 7,-1zm6687 1454l-148 0 0 107 172 0 0 45 -228 0 0 -338 226 0 0 45 -170 0 0 95 148 0 0 46zm-608 -186l97 260 2 0 97 -260 74 0 0 338 -57 0 0 -115 6 -147 -2 0 -100 262 -38 0 -100 -261 -1 0 5 146 0 115 -56 0 0 -338 73 0zm-194 199c0,42 -13,76 -39,103 -26,27 -60,41 -101,41 -41,0 -74,-14 -99,-41 -25,-27 -38,-61 -38,-103l0 -61c0,-41 13,-75 38,-102 25,-27 58,-41 99,-41 41,0 75,14 101,41 26,27 39,61 39,102l0 61zm-56 -61c0,-28 -8,-51 -23,-69 -15,-18 -35,-27 -61,-27 -25,0 -45,9 -59,27 -14,18 -22,41 -22,69l0 61c0,29 8,52 22,70 14,18 34,27 59,27 26,0 46,-9 61,-27 15,-18 23,-41 23,-70l0 -61zm-323 88l0 1c1,34 -10,62 -33,83 -23,22 -54,33 -93,33 -40,0 -72,-14 -96,-40 -25,-27 -37,-61 -37,-102l0 -64c0,-41 12,-75 36,-102 25,-27 56,-40 95,-40 40,0 72,10 95,31 23,21 34,50 33,85l0 1 -55 0c0,-22 -6,-40 -18,-53 -13,-13 -31,-19 -55,-19 -23,0 -41,9 -55,27 -13,19 -20,42 -20,69l0 65c0,28 7,51 21,69 14,18 32,27 56,27 23,0 41,-6 53,-18 12,-13 18,-31 18,-53l55 0zm-378 -40l-148 0 0 107 171 0 0 45 -228 0 0 -338 227 0 0 45 -170 0 0 95 148 0 0 46zm-570 152l0 -338 113 0c37,0 67,7 88,23 21,15 31,38 31,69 0,15 -4,29 -13,41 -9,12 -21,21 -37,27 20,4 36,14 47,29 11,15 16,32 16,52 0,31 -10,56 -31,72 -21,17 -49,25 -86,25l-128 0zm57 -154l0 109 71 0c19,0 35,-5 45,-14 11,-9 16,-22 16,-38 0,-18 -5,-32 -13,-42 -9,-10 -23,-15 -42,-15l-77 0zm0 -42l62 0c18,0 31,-4 42,-13 10,-8 15,-20 15,-35 0,-16 -6,-29 -16,-37 -11,-8 -26,-12 -47,-12l-56 0 0 97zm-3506 44l-148 0 0 107 172 0 0 45 -228 0 0 -338 226 0 0 45 -170 0 0 95 148 0 0 46zm-496 107l176 0 0 45 -243 0 0 -36 170 -257 -169 0 0 -45 237 0 0 34 -171 259zm-295 -129l81 -164 63 0 -117 219 0 119 -56 0 0 -122 -116 -216 63 0 82 164zm-308 129l155 0 0 45 -212 0 0 -338 57 0 0 293zm-240 -34l-132 0 -27 79 -57 0 124 -338 53 0 123 338 -57 0 -27 -79zm-116 -47l100 0 -49 -145 -1 0 -50 145zm-201 126l-56 0 -150 -247 -2 0 0 247 -56 0 0 -338 56 0 150 246 2 0 0 -246 56 0 0 338zm-448 -79l-132 0 -27 79 -57 0 124 -338 54 0 123 338 -58 0 -27 -79zm-116 -47l100 0 -49 -145 -1 0 -50 145zm-3748 126l-56 0 -150 -247 -1 0 0 247 -57 0 0 -338 57 0 150 246 1 0 0 -246 56 0 0 338zm-395 -152l-148 0 0 107 171 0 0 45 -228 0 0 -338 227 0 0 45 -170 0 0 95 148 0 0 46zm-309 -141l-102 0 0 293 -56 0 0 -293 -103 0 0 -45 261 0 0 45zm-407 206c0,-14 -5,-26 -15,-35 -11,-8 -29,-16 -56,-24 -38,-9 -67,-23 -87,-39 -20,-16 -30,-38 -30,-64 0,-28 11,-50 33,-68 23,-17 52,-26 88,-26 37,0 67,10 89,30 23,20 33,44 33,72l-1 1 -54 0c0,-17 -6,-31 -18,-42 -11,-11 -28,-16 -50,-16 -21,0 -36,5 -47,14 -12,9 -17,20 -17,34 0,13 6,24 18,32 12,9 32,17 60,24 36,10 64,24 82,41 19,17 29,39 29,66 0,28 -11,50 -34,67 -23,16 -52,25 -89,25 -35,0 -66,-10 -93,-29 -26,-18 -39,-44 -39,-76l1 -2 54 0c0,21 7,36 22,46 14,10 32,15 55,15 21,0 37,-4 49,-12 12,-8 17,-20 17,-34zm-320 87l-56 0 0 -338 56 0 0 338zm-321 -45l156 0 0 45 -212 0 0 -338 56 0 0 293zm-183 -1772c0,-286 116,-545 304,-732 187,-188 446,-304 732,-304 287,0 546,116 733,304 183,183 298,434 304,713l3623 0c5,-279 120,-530 303,-713 188,-188 447,-304 733,-304 286,0 545,116 733,304 183,183 298,434 303,713l3613 0 0 0c0,-279 112,-530 294,-713 181,-183 433,-298 711,-304 9,0 16,0 20,0 286,0 545,116 733,304 188,187 304,446 304,732l-40 0c0,-275 -111,-524 -292,-705 -180,-180 -430,-292 -705,-292 -9,0 -16,0 -20,0 -267,6 -509,116 -684,292 -174,176 -282,418 -282,686 0,9 0,15 0,19l0 20 -20 0 -3651 0 -20 0 0 -20c0,-275 -111,-524 -292,-705 -180,-180 -429,-292 -705,-292 -275,0 -524,112 -705,292 -180,181 -292,430 -292,705l0 20 -19 0 -3663 0 -20 0 0 -20c0,-275 -111,-524 -292,-705 -180,-180 -429,-292 -705,-292 -275,0 -524,112 -705,292 -180,181 -292,430 -292,705l-39 0zm881 146c-27,0 -49,22 -49,49 0,27 22,48 49,48 26,0 48,-21 48,-48 0,-27 -22,-49 -48,-49zm-51 251c-28,0 -51,-23 -51,-52l0 -301c0,-28 23,-52 51,-52l402 0c28,0 52,24 52,52l0 301c0,29 -24,52 -52,52l-25 0c-7,0 -13,3 -17,7l-85 85 0 -68c0,-13 -11,-24 -24,-24l-251 0zm269 148c11,0 21,-5 29,-12l88 -89 16 0c54,0 99,-44 99,-99l0 -301c0,-54 -45,-99 -99,-99l-402 0c-54,0 -99,45 -99,99l0 301c0,55 45,99 99,99l228 0 0 59c0,17 10,32 25,38 5,3 11,4 16,4zm-68 -399c-27,0 -49,22 -49,49 0,27 22,48 49,48 27,0 49,-21 49,-48 0,-27 -22,-49 -49,-49zm151 97c26,0 48,-21 48,-48 0,-27 -22,-49 -48,-49 -27,0 -49,22 -49,49 0,27 22,48 49,48zm426 54l-26 0 0 -204 53 0 0 177c0,15 -12,27 -27,27zm-73 48c0,15 -12,27 -27,27l-50 0c-15,0 -27,-12 -27,-27l0 -301c0,-14 12,-26 27,-26l50 0c15,0 27,12 27,26l0 301zm-328 353l-76 0c0,0 -1,0 -1,-1l0 -50c0,-1 1,-2 1,-2l76 0c14,0 26,12 26,27 0,14 -12,26 -26,26zm-726 -605l0 204 -27 0c-15,0 -27,-12 -27,-27l0 -177 54 0zm47 -49c0,-14 12,-26 26,-26l50 0c15,0 27,12 27,26l0 301c0,15 -12,27 -27,27l-50 0c-14,0 -26,-12 -26,-27l0 -301zm503 -751c-359,0 -651,292 -651,651l0 326c0,41 33,74 74,74l27 0 0 1c0,41 33,74 73,74l50 0c41,0 74,-33 74,-74l0 -301c0,-40 -33,-73 -74,-73l-50 0c-40,0 -73,33 -73,73l0 2 -54 0 0 -102c0,-333 271,-604 604,-604 333,0 604,271 604,604l0 102 -53 0 0 -2c0,-40 -33,-73 -74,-73l-50 0c-41,0 -74,33 -74,73l0 301c0,41 33,74 74,74l50 0c41,0 74,-33 74,-74l0 -1 2 0c-12,163 -144,294 -308,304 -10,-29 -37,-50 -69,-50l-76 0c-26,0 -48,22 -48,49l0 50c0,27 22,48 48,48l76 0c32,0 60,-21 70,-50 191,-10 344,-164 354,-355 30,-10 51,-37 51,-70l0 -326c0,-359 -292,-651 -651,-651zm11358 182l46 0 0 -135 -46 0 0 135zm469 130l114 -114 -32 -32 -114 114 32 32zm-893 0l33 -32 -114 -114 -32 32 113 114zm-81 974l114 -114 -33 -32 -113 114 32 32zm1124 -622c10,-23 16,-48 16,-74 0,-100 -82,-181 -182,-181 -11,0 -23,1 -34,3 -27,-69 -93,-116 -169,-116 -26,0 -51,5 -74,16 -33,-52 -91,-84 -153,-84 -62,0 -120,32 -153,84 -23,-11 -48,-16 -74,-16 -76,0 -142,47 -169,116 -11,-2 -23,-3 -34,-3 -100,0 -182,81 -182,181 0,26 6,51 16,74 -51,33 -84,91 -84,153 0,100 82,181 182,181l347 0c-5,10 -8,22 -8,34 0,22 10,42 24,57 -14,14 -24,34 -24,56 0,22 10,42 24,57 -14,14 -24,34 -24,57 0,40 32,74 71,78 10,39 46,69 88,69 42,0 78,-30 88,-69 39,-4 71,-38 71,-78 0,-23 -10,-43 -24,-57 14,-15 24,-35 24,-57 0,-22 -10,-42 -24,-56 14,-15 24,-35 24,-57 0,-12 -3,-24 -8,-34l122 0c11,114 108,204 225,204 13,0 23,-10 23,-23l0 -182c89,-12 159,-88 159,-180 0,-62 -33,-120 -84,-153zm-596 696c-17,0 -31,-9 -39,-22l78 0c-8,13 -22,22 -39,22zm79 -68l-158 0c-19,0 -34,-15 -34,-33 0,-19 15,-34 34,-34l158 0c19,0 34,15 34,34 0,18 -15,33 -34,33zm0 -113l-158 0c-19,0 -34,-15 -34,-34 0,-18 15,-34 34,-34l158 0c19,0 34,16 34,34 0,19 -15,34 -34,34zm0 -113l-158 0c-19,0 -34,-15 -34,-34 0,-19 15,-34 34,-34l158 0c19,0 34,15 34,34 0,19 -15,34 -34,34zm-174 -356c4,4 10,6 16,6 5,0 11,-2 16,-6 26,-26 40,-60 40,-97 0,-6 0,-13 -1,-19 0,-1 0,-3 -1,-4 -1,-6 -2,-12 -4,-18 0,0 0,-1 0,-1 -2,-5 -4,-11 -7,-16 0,-1 -1,-2 -1,-4 -3,-5 -6,-10 -10,-15 0,0 0,0 0,-1 28,-17 66,-17 94,0 0,1 0,1 0,1 -4,5 -7,10 -10,15 0,2 -1,3 -1,4 -3,5 -5,11 -7,16 0,0 0,1 0,1 -2,6 -3,12 -4,18 -1,1 -1,3 -1,4 -1,6 -1,13 -1,19 0,37 14,71 40,97 5,4 11,6 16,6 6,0 12,-2 16,-6 26,-26 41,-60 41,-97 0,-6 -1,-13 -2,-19 0,-1 0,-3 0,-4 -1,-6 -2,-12 -4,-18 0,0 -1,-1 -1,-1 -1,-5 -4,-11 -6,-16 -1,-1 -1,-2 -2,-4 -3,-5 -6,-10 -9,-15 0,0 0,0 0,-1 34,-20 81,-15 110,13 17,17 27,40 27,65l0 56 -194 129c-6,4 -10,11 -10,19l0 136 -90 0 0 -136c0,-8 -4,-15 -10,-19l-194 -129 0 -56c0,-50 40,-91 90,-91 17,0 33,5 47,13 0,1 0,1 0,1 -3,5 -6,10 -9,15 -1,2 -1,3 -2,4 -2,5 -5,11 -6,16 0,0 -1,1 -1,1 -2,6 -3,12 -4,18 0,2 0,3 -1,4 0,6 -1,13 -1,19 0,37 15,71 41,97zm4 -97c0,-6 1,-11 2,-16 0,-1 0,-3 1,-4 1,-5 2,-10 4,-15 0,0 1,-1 1,-2 1,-2 3,-4 4,-6 1,2 2,4 3,6 1,1 1,2 1,2 2,5 4,10 5,15 0,1 0,3 0,4 1,5 2,10 2,16 0,5 -1,11 -2,16 0,1 0,2 0,3 -1,6 -3,11 -5,15 0,1 0,2 -1,2 -1,3 -2,5 -3,7 -1,-2 -3,-5 -4,-7 0,0 0,-1 -1,-2 -2,-5 -3,-10 -4,-15 -1,-1 -1,-2 -1,-3 -1,-5 -2,-11 -2,-16zm159 0c0,-6 1,-11 2,-16 0,-1 0,-3 0,-4 1,-5 3,-10 5,-15 0,0 0,-1 1,-2 1,-2 2,-4 3,-6 1,2 3,4 4,6 0,1 0,2 1,2 2,5 3,10 4,15 1,1 1,3 1,4 1,5 2,10 2,16 0,5 -1,11 -2,16 0,1 0,2 -1,3 -1,6 -2,11 -4,15 -1,1 -1,2 -1,2 -1,3 -3,5 -4,7 -1,-2 -2,-5 -3,-7 -1,0 -1,-1 -1,-2 -2,-5 -4,-10 -5,-15 0,-1 0,-2 0,-3 -1,-5 -2,-11 -2,-16zm430 340c-12,0 -22,10 -22,22l0 180c-90,-11 -159,-87 -159,-180 0,-12 -10,-22 -23,-22l-203 0 0 -124 193 -129c7,-5 10,-12 10,-19l0 -68c0,-37 -14,-71 -40,-97l-16 16 16 -16c-26,-25 -60,-39 -95,-39 -29,0 -57,9 -80,26 -23,-17 -50,-26 -79,-26 -29,0 -56,9 -79,26 -23,-17 -51,-26 -80,-26 -75,0 -136,61 -136,136l0 68c0,7 4,14 11,19l193 129 0 124 -407 0c-75,0 -136,-61 -136,-136 0,-53 30,-101 78,-123 6,-3 10,-8 12,-14 2,-7 1,-13 -2,-19 -13,-21 -20,-46 -20,-71 0,-75 61,-136 136,-136 14,0 28,3 42,7 6,2 13,2 18,-1 6,-4 10,-9 11,-15 15,-61 69,-104 132,-104 25,0 50,7 72,20 5,4 12,5 18,3 6,-2 11,-7 14,-12 22,-48 71,-79 123,-79 52,0 101,31 123,79 3,5 8,10 14,12 6,2 13,1 18,-3 22,-13 47,-20 72,-20 62,0 117,43 132,104 1,6 5,11 11,15 5,3 12,3 18,1 14,-4 28,-7 42,-7 75,0 136,61 136,136 0,25 -7,50 -20,71 -3,6 -4,12 -2,19 2,6 6,11 12,14 47,22 78,70 78,123 0,75 -61,136 -136,136zm-770 136l45 0 0 -46 -45 0 0 46zm-90 0l45 0 0 -46 -45 0 0 46zm-91 0l45 0 0 -46 -45 0 0 46zm-5402 94l-168 0c-14,0 -24,11 -24,25 0,13 10,24 24,24l168 0c14,0 24,-11 24,-24 0,-14 -10,-25 -24,-25zm0 -168l-313 0c-13,0 -24,11 -24,24 0,13 11,24 24,24l313 0c14,0 24,-11 24,-24 0,-13 -10,-24 -24,-24zm0 -169l-457 0c-13,0 -24,11 -24,25 0,13 11,24 24,24l457 0c14,0 24,-11 24,-24 0,-14 -10,-25 -24,-25zm0 -168l-361 0c-13,0 -24,11 -24,24 0,13 11,24 24,24l361 0c14,0 24,-11 24,-24 0,-13 -10,-24 -24,-24zm0 -168l-240 0c-14,0 -25,10 -25,24 0,13 11,24 25,24l240 0c14,0 24,-11 24,-24 0,-14 -10,-24 -24,-24zm0 -169l-120 0c-13,0 -24,11 -24,24 0,13 11,24 24,24l120 0c14,0 24,-11 24,-24 0,-13 -10,-24 -24,-24zm776 134c0,-1 0,-1 0,-2 0,0 -1,0 -1,-1 -24,-42 -53,-80 -86,-116l52 -51 34 34 102 -102 -102 -102 -102 102 34 34 -52 51c-35,-32 -74,-61 -116,-85 0,-1 0,-1 -1,-2 0,0 -1,0 -1,0 -75,-43 -159,-72 -248,-82l0 -29 36 0c33,0 61,-27 61,-60 0,-33 -28,-60 -61,-60l-216 0c-34,0 -60,27 -60,60 0,33 26,60 60,60l36 0 0 28c-26,3 -52,7 -78,13 -13,3 -21,16 -18,29 3,13 16,21 29,18 22,-5 44,-9 67,-12l26 -2c8,0 15,-1 22,-1l0 48c0,13 11,24 24,24 13,0 24,-11 24,-24l0 -48c91,4 176,29 252,69l-24 41c-7,11 -3,26 9,33 4,2 8,3 12,3 8,0 16,-4 21,-12l23 -41c76,48 140,112 187,187l-41 24c-11,6 -15,21 -8,33 4,7 12,12 21,12 4,0 8,-1 12,-4l41 -23c40,77 65,163 68,255l-47 0c-14,0 -24,11 -24,24 0,14 10,24 24,24l47 0c-3,92 -28,179 -68,256l-41 -24c-12,-6 -27,-3 -33,9 -7,12 -3,26 9,33l41 24c-48,75 -112,139 -188,187l-23 -41c-7,-12 -22,-16 -33,-9 -12,7 -16,21 -9,33l24 41c-76,40 -161,64 -252,68l0 -47c0,-13 -11,-24 -24,-24 -13,0 -24,11 -24,24l0 48c-38,-2 -77,-7 -115,-15 -13,-3 -26,5 -29,18 -3,13 5,26 18,29 48,11 97,16 146,16 1,0 2,0 4,0 0,0 0,0 0,0 0,0 0,0 1,0 115,-1 224,-32 318,-86 1,0 1,0 2,-1 1,0 1,0 1,-1 97,-56 179,-138 235,-235 1,0 2,-1 2,-2 0,0 0,-1 0,-1 55,-96 87,-206 87,-324 0,-117 -32,-228 -87,-323zm-1 -272l0 0 34 34 -34 34 -34 -34 34 -34zm-582 -54l0 0 0 -73 -84 0c-7,0 -12,-5 -12,-12 0,-6 5,-12 12,-12l216 0c7,0 12,6 12,12 0,7 -5,12 -12,12l-84 0 0 73c-8,0 -16,-1 -24,-1 -1,0 -1,0 -2,0 -1,0 -1,0 -2,0 -4,0 -8,1 -12,1 -3,0 -5,0 -8,0zm0 681l0 0c1,-11 7,-21 15,-27l190 -138 -137 190c-7,9 -17,15 -28,15 -11,1 -21,-3 -29,-10 -8,-8 -12,-19 -11,-30z"/>
 </g>
</svg>
