<?xml version="1.0" encoding="UTF-8"?>
<!DOCTYPE svg PUBLIC "-//W3C//DTD SVG 1.1//EN" "http://www.w3.org/Graphics/SVG/1.1/DTD/svg11.dtd">
<svg xmlns="http://www.w3.org/2000/svg" xml:space="preserve" width="4.20873in" height="2.11291in" version="1.1" style="shape-rendering:geometricPrecision; text-rendering:geometricPrecision; image-rendering:optimizeQuality; fill-rule:evenodd; clip-rule:evenodd"
viewBox="0 0 4208 2113"
 xmlns:xlink="http://www.w3.org/1999/xlink">

  <path class="fil0" fill="#f3be5a" d="M60 1227l0 -148 127 -25 0 -880 -127 -26 0 -148 127 0 241 0 128 0 0 148 -128 26 0 864 338 0 12 -154 183 0 0 343 -901 0zm3832 350l-62 8 121 235 121 -235 -62 -8 0 -50 198 0 0 50 -48 8 -172 316 0 142 65 11 0 50 -207 0 0 -50 64 -11 0 -148 -168 -310 -48 -8 0 -50 198 0 0 50zm-379 65l-2 -1 -186 463 -52 0 -187 -462 -2 0 8 234 0 167 64 11 0 50 -207 0 0 -50 65 -11 0 -455 -65 -11 0 -50 65 0 100 0 184 469 2 0 184 -469 165 0 0 50 -65 11 0 455 65 11 0 50 -208 0 0 -50 65 -11 0 -167 7 -234zm-1128 462l0 -50 65 -11 0 -455 -65 -11 0 -50 444 0 0 139 -67 0 -7 -78 -227 0 0 187 221 0 0 62 -221 0 0 206 232 0 7 -77 66 0 0 138 -448 0zm-352 -577c75,0 136,23 181,69 46,47 69,107 69,180l0 79c0,74 -23,134 -69,180 -45,46 -106,69 -181,69l-242 0 0 -50 64 -11 0 -455 -64 -11 0 -50 64 0 178 0zm-99 61l0 455 99 0c53,0 95,-17 126,-53 31,-35 46,-80 46,-135l0 -80c0,-54 -15,-99 -46,-134 -31,-35 -73,-53 -126,-53l-99 0zm-776 466l43 -6 202 -521 67 0 198 521 43 6 0 50 -166 0 0 -50 44 -7 -38 -106 -232 0 -39 106 44 7 0 50 -166 0 0 -50zm185 -179l184 0 -90 -248 -2 0 -92 248zm-294 -171l-55 0 -15 -82c-13,-12 -28,-22 -47,-30 -18,-8 -40,-12 -66,-12 -60,0 -106,22 -138,65 -33,44 -49,99 -49,166l0 9c0,67 16,122 48,166 31,44 75,66 131,66 26,0 50,-5 72,-13 21,-8 38,-18 49,-30l15 -82 55 0 0 103c-17,22 -42,41 -75,57 -33,17 -72,26 -116,26 -75,0 -136,-28 -185,-84 -48,-55 -72,-125 -72,-209l0 -8c0,-85 24,-155 71,-210 47,-56 109,-84 186,-84 44,0 83,9 116,26 33,17 58,36 75,57l0 103zm-1049 350l43 -6 202 -521 67 0 198 521 43 6 0 50 -166 0 0 -50 43 -7 -38 -106 -231 0 -39 106 43 7 0 50 -165 0 0 -50zm185 -179l184 0 -90 -248 -3 0 -91 248zm3465 -1875c142,0 251,28 330,84 80,57 119,141 119,252 0,57 -15,108 -44,152 -29,45 -72,79 -128,101 72,16 126,50 162,101 36,52 54,112 54,180 0,117 -38,206 -114,266 -76,61 -183,91 -322,91l-589 0 0 -148 127 -25 0 -880 -127 -26 0 -148 127 0 405 0zm-164 684l0 354 221 0c64,0 112,-14 146,-42 33,-29 50,-71 50,-126 0,-60 -14,-106 -43,-138 -28,-32 -73,-48 -135,-48l-239 0zm0 -170l173 0c64,0 113,-13 148,-40 34,-27 52,-67 52,-118 0,-57 -18,-99 -53,-126 -34,-27 -86,-40 -156,-40l-164 0 0 324zm-498 713l-240 0 0 -216 240 0 0 216zm-1523 -148l86 -12 364 -1067 246 0 363 1067 85 12 0 148 -408 0 0 -148 83 -15 -53 -168 -388 0 -53 168 83 15 0 148 -408 0 0 -148zm435 -364l275 0 -136 -433 -5 0 -134 433zm-553 512l-239 0 0 -216 239 0 0 216z"/>
</svg>
