<?xml version="1.0" encoding="UTF-8"?>
<!DOCTYPE svg PUBLIC "-//W3C//DTD SVG 1.1//EN" "http://www.w3.org/Graphics/SVG/1.1/DTD/svg11.dtd">
<!-- Creator: CorelDRAW X7 -->
<svg xmlns="http://www.w3.org/2000/svg" xml:space="preserve" width="100%" height="100%" version="1.1" style="shape-rendering:geometricPrecision; text-rendering:geometricPrecision; image-rendering:optimizeQuality; fill-rule:evenodd; clip-rule:evenodd"
viewBox="0 0 4209 2113"
 xmlns:xlink="http://www.w3.org/1999/xlink">
 <defs>
  <style type="text/css">
   <![CDATA[
    .fil0 {fill:#2B2A29}
   ]]>
  </style>
 </defs>
 <g id="Layer_x0020_1">
  <metadata id="CorelCorpID_0Corel-Layer"/>
  <path class="fil0" d="M60 1227l0 -147 127 -26 0 -880 -127 -26 0 -148 127 0 241 0 128 0 0 148 -128 26 0 864 338 0 12 -154 183 0 0 343 -901 0zm3833 350l-63 8 121 235 121 -235 -62 -8 0 -50 199 0 0 50 -49 8 -171 316 0 142 64 12 0 50 -207 0 0 -50 65 -12 0 -148 -168 -310 -49 -8 0 -50 199 0 0 50zm-379 65l-2 0 -187 463 -52 0 -187 -463 -2 0 8 234 0 167 65 12 0 50 -208 0 0 -50 65 -12 0 -455 -65 -11 0 -50 65 0 100 0 184 469 2 0 184 -469 165 0 0 50 -65 11 0 455 65 12 0 50 -207 0 0 -50 64 -12 0 -167 8 -234zm-1128 463l0 -50 64 -12 0 -455 -64 -11 0 -50 443 0 0 139 -67 0 -6 -78 -227 0 0 187 221 0 0 62 -221 0 0 206 232 0 6 -77 67 0 0 139 -448 0zm-353 -578c75,0 136,23 182,70 46,46 69,106 69,179l0 79c0,74 -23,134 -69,180 -46,47 -107,70 -182,70l-242 0 0 -50 65 -12 0 -455 -65 -11 0 -50 65 0 177 0zm-99 61l0 455 99 0c53,0 95,-17 126,-52 31,-36 46,-81 46,-136l0 -79c0,-55 -15,-100 -46,-135 -31,-35 -73,-53 -126,-53l-99 0zm-776 467l43 -6 202 -522 67 0 199 522 42 6 0 50 -166 0 0 -50 44 -8 -38 -106 -232 0 -39 106 44 8 0 50 -166 0 0 -50zm186 -180l183 0 -90 -248 -2 0 -91 248zm-295 -171l-55 0 -15 -82c-12,-12 -28,-22 -47,-30 -18,-8 -40,-12 -66,-12 -60,0 -106,22 -138,65 -33,44 -49,99 -49,166l0 9c0,67 16,122 48,166 31,44 75,66 131,66 26,0 50,-4 72,-12 21,-9 38,-19 49,-31l15 -81 55 0 0 102c-17,22 -42,41 -75,58 -33,16 -72,25 -116,25 -75,0 -136,-28 -185,-83 -48,-56 -72,-126 -72,-210l0 -8c0,-85 24,-155 71,-210 48,-56 110,-83 186,-83 44,0 83,8 116,25 33,17 58,36 75,57l0 103zm-1049 351l43 -6 202 -522 67 0 198 522 43 6 0 50 -166 0 0 -50 43 -8 -38 -106 -231 0 -39 106 43 8 0 50 -165 0 0 -50zm185 -180l184 0 -90 -248 -2 0 -92 248zm3466 -1875c141,0 251,28 330,84 79,57 118,141 118,252 0,57 -14,108 -44,152 -29,45 -72,79 -128,101 72,16 126,50 162,101 36,52 54,112 54,180 0,117 -38,206 -114,267 -75,60 -183,90 -321,90l-590 0 0 -147 128 -26 0 -880 -128 -26 0 -148 128 0 405 0zm-165 684l0 354 222 0c63,0 112,-14 145,-42 34,-29 50,-71 50,-126 0,-60 -14,-106 -42,-138 -29,-32 -74,-48 -135,-48l-240 0zm0 -170l173 0c64,0 113,-13 148,-40 35,-27 52,-67 52,-118 0,-57 -17,-99 -52,-126 -35,-27 -87,-40 -156,-40l-165 0 0 324zm-498 713l-239 0 0 -216 239 0 0 216zm-1523 -147l86 -13 364 -1067 247 0 362 1067 85 13 0 147 -408 0 0 -147 83 -15 -52 -169 -389 0 -53 169 83 15 0 147 -408 0 0 -147zm435 -365l275 0 -135 -433 -5 0 -135 433zm-553 512l-239 0 0 -216 239 0 0 216z"/>
 </g>
</svg>
